<svg xmlns="http://www.w3.org/2000/svg" width="28" height="28" viewBox="0 0 28 28">
    <g fill="none" fill-rule="evenodd">
        <g>
            <g>
                <g>
                    <g>
                        <g>
                            <g transform="translate(-365.000000, -708.000000) translate(180.000000, 144.000000) translate(16.000000, 16.000000) translate(0.000000, 548.000000) translate(61.000000, 0.000000) translate(108.000000, 0.000000)">
                                <circle cx="14" cy="14" r="14" fill="#55ACEE"/>
                                <path fill="#FFF" d="M20.413 8.645c-.395.253-1.303.621-1.75.621-.51-.533-1.23-.866-2.028-.866-1.55 0-2.806 1.256-2.806 2.805 0 .215.025.425.071.626-2.102-.055-4.4-1.108-5.784-2.911-.85 1.473-.115 3.11.85 3.707-.33.025-.938-.038-1.224-.317-.02.977.45 2.272 2.164 2.742-.33.177-.914.126-1.168.089.089.825 1.244 1.903 2.508 1.903-.45.521-2.145 1.466-4.046 1.165 1.291.786 2.796 1.241 4.389 1.241 4.527 0 8.042-3.669 7.853-8.194l-.002-.016.002-.035-.002-.04c.412-.283.965-.781 1.36-1.437-.23.126-.916.378-1.556.441.41-.221 1.019-.947 1.169-1.524"/>
                            </g>
                        </g>
                    </g>
                </g>
            </g>
        </g>
    </g>
</svg>
