<svg xmlns="http://www.w3.org/2000/svg" width="28" height="28" viewBox="0 0 28 28">
    <g fill="none" fill-rule="evenodd">
        <g>
            <g>
                <g>
                    <g>
                        <g>
                            <g transform="translate(-293.000000, -708.000000) translate(180.000000, 144.000000) translate(16.000000, 16.000000) translate(0.000000, 548.000000) translate(61.000000, 0.000000) translate(36.000000, 0.000000)">
                                <circle cx="14" cy="14" r="14" fill="#0084FF"/>
                                <path fill="#FFF" d="M14.848 15.928l-1.771-1.9-3.457 1.9 3.802-4.061 1.815 1.9 3.414-1.9-3.803 4.061zM14.157 7.2c-3.842 0-6.957 2.902-6.957 6.481 0 2.04 1.012 3.86 2.593 5.048V21.2l2.368-1.308c.632.176 1.302.271 1.996.271 3.842 0 6.957-2.902 6.957-6.482S17.999 7.2 14.157 7.2z"/>
                            </g>
                        </g>
                    </g>
                </g>
            </g>
        </g>
    </g>
</svg>
