<svg xmlns="http://www.w3.org/2000/svg" width="28" height="28" viewBox="0 0 28 28">
    <g fill="none" fill-rule="evenodd">
        <g>
            <g>
                <g>
                    <g>
                        <g>
                            <g transform="translate(-329.000000, -708.000000) translate(180.000000, 144.000000) translate(16.000000, 16.000000) translate(0.000000, 548.000000) translate(61.000000, 0.000000) translate(72.000000, 0.000000)">
                                <circle cx="14" cy="14" r="14" fill="#CC2127"/>
                                <path fill="#FFF" d="M14.2 6.8c-3.866 0-7 3.138-7 7.007 0 2.885 1.741 5.362 4.228 6.437-.017-.488 0-1.07.124-1.599l.904-3.832s-.224-.45-.224-1.113c0-1.041.604-1.82 1.354-1.82.64 0 .949.481.949 1.056 0 .643-.41 1.605-.622 2.495-.175.746.376 1.355 1.11 1.355 1.33 0 2.226-1.711 2.226-3.74 0-1.54-1.035-2.694-2.922-2.694-2.13 0-3.46 1.59-3.46 3.368 0 .612.182 1.045.465 1.38.13.153.147.215.1.392-.034.129-.11.44-.142.564-.047.178-.192.24-.352.175-.981-.4-1.44-1.476-1.44-2.686 0-1.998 1.684-4.393 5.022-4.393 2.683 0 4.448 1.943 4.448 4.028 0 2.76-1.533 4.82-3.791 4.82-.759 0-1.473-.41-1.716-.876 0 0-.409 1.62-.494 1.933-.148.534-.432 1.068-.695 1.488.612.175 1.258.27 1.928.27 3.866 0 7-3.138 7-7.008S18.066 6.8 14.2 6.8"/>
                            </g>
                        </g>
                    </g>
                </g>
            </g>
        </g>
    </g>
</svg>
