<svg xmlns="http://www.w3.org/2000/svg" width="28" height="28" viewBox="0 0 28 28">
    <g fill="none" fill-rule="evenodd">
        <g>
            <g>
                <g>
                    <g>
                        <g>
                            <g transform="translate(-401.000000, -708.000000) translate(180.000000, 144.000000) translate(16.000000, 16.000000) translate(0.000000, 548.000000) translate(61.000000, 0.000000) translate(144.000000, 0.000000)">
                                <circle cx="14" cy="14" r="14" fill="#242424" opacity=".5"/>
                                <g fill="#FFF">
                                    <g>
                                        <path d="M3.782 6.88c.164-.164.404-.228.628-.168.224.06.399.236.458.46.06.224-.006.463-.17.627-.26.256-.572.567-.888.882l-.27.27-.134.132-.26.26-.564.562-.245.243-.109.11-.058.057-.008.008c-1.154 1.155-1.154 3.027 0 4.181 1.155 1.155 3.028 1.155 4.182 0l2.525-2.535c.163-.164.402-.229.626-.17.224.06.4.235.46.459.06.223-.003.462-.167.627L7.261 15.42c-.795.801-1.879 1.25-3.008 1.247-1.72 0-3.27-1.037-3.93-2.626-.657-1.589-.294-3.418.923-4.635zm6.853-1.764c.254-.253.664-.253.917 0s.253.663 0 .916l-5.522 5.52c-.253.254-.663.254-.916 0-.253-.252-.253-.663 0-.916zM9.408 1.248c.925-.93 2.228-1.378 3.529-1.215.744.089 1.451.376 2.047.831.979.743 1.588 1.873 1.673 3.1.084 1.225-.366 2.428-1.234 3.298l-2.537 2.526c-.165.164-.404.227-.628.167-.224-.061-.398-.236-.458-.46-.06-.225.005-.464.17-.627l2.537-2.522c.747-.748 1.038-1.837.764-2.857-.273-1.02-1.07-1.817-2.092-2.09-1.02-.274-2.11.018-2.856.766L7.8 4.7c-.164.165-.403.23-.628.17-.224-.06-.4-.234-.46-.459-.06-.224.003-.464.168-.628z" transform="translate(4.000000, 4.000000) translate(1.666667, 1.666667)"/>
                                    </g>
                                </g>
                            </g>
                        </g>
                    </g>
                </g>
            </g>
        </g>
    </g>
</svg>
