<?xml version="1.0" encoding="iso-8859-1"?>
<!-- Generator: Adobe Illustrator 19.0.0, SVG Export Plug-In . SVG Version: 6.00 Build 0)  -->
<svg version="1.1" id="Capa_1" xmlns="http://www.w3.org/2000/svg" xmlns:xlink="http://www.w3.org/1999/xlink" x="0px" y="0px"
   viewBox="0 0 512 512" style="enable-background:new 0 0 512 512;" xml:space="preserve">
<g>
  <g>
    <path d="M435.73,225.87L328.861,119c-12.497-12.497-32.758-12.497-45.255,0c-12.497,12.497-12.497,32.758,0,45.255
      l81.397,81.397H141.667c-17.673,0-32.001,14.327-32.001,32.001c0,17.674,14.327,32.001,32.001,32.001h273.336l-81.397,81.397
      c-12.497,12.497-12.497,32.758,0,45.255c6.248,6.248,14.438,9.372,22.618,9.372s16.37-3.124,22.618-9.372l106.87-106.87
      c6.248-6.248,9.372-14.438,9.372-22.618S441.978,232.119,435.73,225.87z"/>
  </g>
</g>
</svg>
